<mxfile host="app.diagrams.net" modified="2023-02-28T08:35:42.746Z" agent="5.0 (Windows)" etag="MfYPtqDpZ5XqQ5v49L9a" version="20.8.23" type="github">
  <diagram name="Page-1" id="qYfQutPJ-sFfz8ikCnP6">
    <mxGraphModel dx="2261" dy="746" grid="1" gridSize="10" guides="1" tooltips="1" connect="1" arrows="1" fold="1" page="1" pageScale="1" pageWidth="827" pageHeight="1169" math="0" shadow="0">
      <root>
        <mxCell id="0" />
        <mxCell id="1" parent="0" />
        <mxCell id="fiyiwOHagAMcbI06cj-v-1" value="" style="rounded=0;whiteSpace=wrap;html=1;" parent="1" vertex="1">
          <mxGeometry x="390" y="324" width="186" height="146" as="geometry" />
        </mxCell>
        <mxCell id="fiyiwOHagAMcbI06cj-v-2" value="" style="endArrow=none;html=1;rounded=0;" parent="1" edge="1">
          <mxGeometry width="50" height="50" relative="1" as="geometry">
            <mxPoint x="390" y="350" as="sourcePoint" />
            <mxPoint x="580" y="350" as="targetPoint" />
          </mxGeometry>
        </mxCell>
        <mxCell id="fiyiwOHagAMcbI06cj-v-3" value="General Practice / Surgery" style="text;html=1;strokeColor=none;fillColor=none;align=center;verticalAlign=middle;whiteSpace=wrap;rounded=0;" parent="1" vertex="1">
          <mxGeometry x="409.5" y="324" width="147" height="30" as="geometry" />
        </mxCell>
        <mxCell id="fiyiwOHagAMcbI06cj-v-4" value="" style="rounded=0;whiteSpace=wrap;html=1;" parent="1" vertex="1">
          <mxGeometry x="790" y="324" width="186" height="106" as="geometry" />
        </mxCell>
        <mxCell id="fiyiwOHagAMcbI06cj-v-5" value="" style="endArrow=none;html=1;rounded=0;" parent="1" edge="1">
          <mxGeometry width="50" height="50" relative="1" as="geometry">
            <mxPoint x="790" y="354" as="sourcePoint" />
            <mxPoint x="980" y="354" as="targetPoint" />
          </mxGeometry>
        </mxCell>
        <mxCell id="fiyiwOHagAMcbI06cj-v-6" value="Central Health Records" style="text;html=1;strokeColor=none;fillColor=none;align=center;verticalAlign=middle;whiteSpace=wrap;rounded=0;" parent="1" vertex="1">
          <mxGeometry x="809.5" y="324" width="147" height="30" as="geometry" />
        </mxCell>
        <mxCell id="fiyiwOHagAMcbI06cj-v-7" value="" style="rounded=0;whiteSpace=wrap;html=1;" parent="1" vertex="1">
          <mxGeometry x="140" y="50" width="186" height="210" as="geometry" />
        </mxCell>
        <mxCell id="fiyiwOHagAMcbI06cj-v-8" value="" style="endArrow=none;html=1;rounded=0;entryX=1.005;entryY=0.135;entryDx=0;entryDy=0;entryPerimeter=0;exitX=0.005;exitY=0.135;exitDx=0;exitDy=0;exitPerimeter=0;" parent="1" source="fiyiwOHagAMcbI06cj-v-7" target="fiyiwOHagAMcbI06cj-v-7" edge="1">
          <mxGeometry width="50" height="50" relative="1" as="geometry">
            <mxPoint x="140" y="180" as="sourcePoint" />
            <mxPoint x="190" y="130" as="targetPoint" />
          </mxGeometry>
        </mxCell>
        <mxCell id="fiyiwOHagAMcbI06cj-v-9" value="Patient" style="text;html=1;strokeColor=none;fillColor=none;align=center;verticalAlign=middle;whiteSpace=wrap;rounded=0;" parent="1" vertex="1">
          <mxGeometry x="175" y="50" width="120" height="30" as="geometry" />
        </mxCell>
        <mxCell id="fiyiwOHagAMcbI06cj-v-10" value="" style="rounded=0;whiteSpace=wrap;html=1;" parent="1" vertex="1">
          <mxGeometry x="293" y="840" width="186" height="75" as="geometry" />
        </mxCell>
        <mxCell id="fiyiwOHagAMcbI06cj-v-11" value="" style="endArrow=none;html=1;rounded=0;" parent="1" edge="1">
          <mxGeometry width="50" height="50" relative="1" as="geometry">
            <mxPoint x="290" y="870" as="sourcePoint" />
            <mxPoint x="480" y="870" as="targetPoint" />
          </mxGeometry>
        </mxCell>
        <mxCell id="fiyiwOHagAMcbI06cj-v-12" value="Doctor" style="text;html=1;strokeColor=none;fillColor=none;align=center;verticalAlign=middle;whiteSpace=wrap;rounded=0;" parent="1" vertex="1">
          <mxGeometry x="326" y="840" width="120" height="30" as="geometry" />
        </mxCell>
        <mxCell id="fiyiwOHagAMcbI06cj-v-13" value="" style="rounded=0;whiteSpace=wrap;html=1;" parent="1" vertex="1">
          <mxGeometry x="587" y="840" width="186" height="60" as="geometry" />
        </mxCell>
        <mxCell id="fiyiwOHagAMcbI06cj-v-14" value="" style="endArrow=none;html=1;rounded=0;" parent="1" edge="1">
          <mxGeometry width="50" height="50" relative="1" as="geometry">
            <mxPoint x="588" y="869" as="sourcePoint" />
            <mxPoint x="773" y="869" as="targetPoint" />
          </mxGeometry>
        </mxCell>
        <mxCell id="fiyiwOHagAMcbI06cj-v-15" value="Receptionist / Admin" style="text;html=1;strokeColor=none;fillColor=none;align=center;verticalAlign=middle;whiteSpace=wrap;rounded=0;" parent="1" vertex="1">
          <mxGeometry x="620" y="840" width="120" height="30" as="geometry" />
        </mxCell>
        <mxCell id="fiyiwOHagAMcbI06cj-v-16" value="" style="rounded=0;whiteSpace=wrap;html=1;" parent="1" vertex="1">
          <mxGeometry x="140" y="430" width="186" height="140" as="geometry" />
        </mxCell>
        <mxCell id="fiyiwOHagAMcbI06cj-v-17" value="" style="endArrow=none;html=1;rounded=0;entryX=1;entryY=0.207;entryDx=0;entryDy=0;entryPerimeter=0;" parent="1" target="fiyiwOHagAMcbI06cj-v-16" edge="1">
          <mxGeometry width="50" height="50" relative="1" as="geometry">
            <mxPoint x="140" y="460" as="sourcePoint" />
            <mxPoint x="190" y="410" as="targetPoint" />
          </mxGeometry>
        </mxCell>
        <mxCell id="fiyiwOHagAMcbI06cj-v-18" value="Appointment" style="text;html=1;strokeColor=none;fillColor=none;align=center;verticalAlign=middle;whiteSpace=wrap;rounded=0;" parent="1" vertex="1">
          <mxGeometry x="173" y="430" width="120" height="30" as="geometry" />
        </mxCell>
        <mxCell id="fiyiwOHagAMcbI06cj-v-19" value="" style="endArrow=none;html=1;rounded=0;endFill=0;" parent="1" edge="1">
          <mxGeometry width="50" height="50" relative="1" as="geometry">
            <mxPoint x="576" y="374" as="sourcePoint" />
            <mxPoint x="790" y="374" as="targetPoint" />
          </mxGeometry>
        </mxCell>
        <mxCell id="fiyiwOHagAMcbI06cj-v-20" value="has access to" style="text;html=1;align=center;verticalAlign=middle;resizable=0;points=[];autosize=1;strokeColor=none;fillColor=none;" parent="1" vertex="1">
          <mxGeometry x="630" y="345" width="100" height="30" as="geometry" />
        </mxCell>
        <mxCell id="fiyiwOHagAMcbI06cj-v-21" value="1..1" style="text;html=1;align=center;verticalAlign=middle;resizable=0;points=[];autosize=1;strokeColor=none;fillColor=none;" parent="1" vertex="1">
          <mxGeometry x="570" y="379" width="40" height="30" as="geometry" />
        </mxCell>
        <mxCell id="fiyiwOHagAMcbI06cj-v-22" value="1..*" style="text;html=1;align=center;verticalAlign=middle;resizable=0;points=[];autosize=1;strokeColor=none;fillColor=none;" parent="1" vertex="1">
          <mxGeometry x="750" y="379" width="40" height="30" as="geometry" />
        </mxCell>
        <mxCell id="fiyiwOHagAMcbI06cj-v-23" value="" style="endArrow=none;html=1;rounded=0;entryX=0.567;entryY=-0.067;entryDx=0;entryDy=0;entryPerimeter=0;endFill=0;exitX=1;exitY=0;exitDx=0;exitDy=0;exitPerimeter=0;" parent="1" target="fiyiwOHagAMcbI06cj-v-18" edge="1" source="fiyiwOHagAMcbI06cj-v-56">
          <mxGeometry width="50" height="50" relative="1" as="geometry">
            <mxPoint x="240" y="240" as="sourcePoint" />
            <mxPoint x="290" y="190" as="targetPoint" />
          </mxGeometry>
        </mxCell>
        <mxCell id="fiyiwOHagAMcbI06cj-v-24" value="1..*" style="text;html=1;align=center;verticalAlign=middle;resizable=0;points=[];autosize=1;strokeColor=none;fillColor=none;" parent="1" vertex="1">
          <mxGeometry x="203" y="404" width="40" height="30" as="geometry" />
        </mxCell>
        <mxCell id="fiyiwOHagAMcbI06cj-v-27" value="Works for" style="text;html=1;align=center;verticalAlign=middle;resizable=0;points=[];autosize=1;strokeColor=none;fillColor=none;rotation=90;" parent="1" vertex="1">
          <mxGeometry x="430" y="510" width="80" height="30" as="geometry" />
        </mxCell>
        <mxCell id="fiyiwOHagAMcbI06cj-v-32" value="1..1" style="text;html=1;align=center;verticalAlign=middle;resizable=0;points=[];autosize=1;strokeColor=none;fillColor=none;" parent="1" vertex="1">
          <mxGeometry x="479" y="470" width="40" height="30" as="geometry" />
        </mxCell>
        <mxCell id="fiyiwOHagAMcbI06cj-v-35" value="" style="endArrow=none;html=1;rounded=0;entryX=-0.005;entryY=0.371;entryDx=0;entryDy=0;endFill=0;exitX=0.2;exitY=0;exitDx=0;exitDy=0;exitPerimeter=0;entryPerimeter=0;" parent="1" source="fiyiwOHagAMcbI06cj-v-37" target="fiyiwOHagAMcbI06cj-v-16" edge="1">
          <mxGeometry width="50" height="50" relative="1" as="geometry">
            <mxPoint x="769" y="827" as="sourcePoint" />
            <mxPoint x="819" y="777" as="targetPoint" />
            <Array as="points">
              <mxPoint x="840" y="875" />
              <mxPoint x="840" y="930" />
              <mxPoint x="-100" y="930" />
              <mxPoint x="-100" y="482" />
            </Array>
          </mxGeometry>
        </mxCell>
        <mxCell id="fiyiwOHagAMcbI06cj-v-36" value="1..*" style="text;html=1;align=center;verticalAlign=middle;resizable=0;points=[];autosize=1;strokeColor=none;fillColor=none;" parent="1" vertex="1">
          <mxGeometry x="103" y="480" width="40" height="30" as="geometry" />
        </mxCell>
        <mxCell id="fiyiwOHagAMcbI06cj-v-37" value="1..1" style="text;html=1;align=center;verticalAlign=middle;resizable=0;points=[];autosize=1;strokeColor=none;fillColor=none;" parent="1" vertex="1">
          <mxGeometry x="769.5" y="875" width="40" height="30" as="geometry" />
        </mxCell>
        <mxCell id="fiyiwOHagAMcbI06cj-v-38" value="amends" style="text;html=1;align=center;verticalAlign=middle;resizable=0;points=[];autosize=1;strokeColor=none;fillColor=none;" parent="1" vertex="1">
          <mxGeometry x="108" y="900" width="70" height="30" as="geometry" />
        </mxCell>
        <mxCell id="fiyiwOHagAMcbI06cj-v-39" value="" style="endArrow=none;html=1;rounded=0;exitX=0;exitY=0;exitDx=0;exitDy=0;entryX=0.95;entryY=0.067;entryDx=0;entryDy=0;entryPerimeter=0;endFill=0;" parent="1" source="fiyiwOHagAMcbI06cj-v-10" target="fiyiwOHagAMcbI06cj-v-41" edge="1">
          <mxGeometry width="50" height="50" relative="1" as="geometry">
            <mxPoint x="310" y="630" as="sourcePoint" />
            <mxPoint x="360" y="580" as="targetPoint" />
          </mxGeometry>
        </mxCell>
        <mxCell id="fiyiwOHagAMcbI06cj-v-40" value="attends" style="text;html=1;align=center;verticalAlign=middle;resizable=0;points=[];autosize=1;strokeColor=none;fillColor=none;rotation=90;" parent="1" vertex="1">
          <mxGeometry x="250" y="690" width="60" height="30" as="geometry" />
        </mxCell>
        <mxCell id="fiyiwOHagAMcbI06cj-v-41" value="1..*" style="text;html=1;align=center;verticalAlign=middle;resizable=0;points=[];autosize=1;strokeColor=none;fillColor=none;" parent="1" vertex="1">
          <mxGeometry x="260" y="565" width="40" height="30" as="geometry" />
        </mxCell>
        <mxCell id="fiyiwOHagAMcbI06cj-v-42" value="1..1" style="text;html=1;align=center;verticalAlign=middle;resizable=0;points=[];autosize=1;strokeColor=none;fillColor=none;" parent="1" vertex="1">
          <mxGeometry x="253" y="820" width="40" height="30" as="geometry" />
        </mxCell>
        <mxCell id="fiyiwOHagAMcbI06cj-v-43" value="" style="triangle;whiteSpace=wrap;html=1;rotation=-90;fillColor=#000000;" parent="1" vertex="1">
          <mxGeometry x="275" y="660" width="10" height="20" as="geometry" />
        </mxCell>
        <mxCell id="fiyiwOHagAMcbI06cj-v-44" value="" style="triangle;whiteSpace=wrap;html=1;rotation=-180;fillColor=#000000;" parent="1" vertex="1">
          <mxGeometry x="93" y="905" width="10" height="20" as="geometry" />
        </mxCell>
        <mxCell id="fiyiwOHagAMcbI06cj-v-45" value="" style="triangle;whiteSpace=wrap;html=1;rotation=-90;fillColor=#000000;" parent="1" vertex="1">
          <mxGeometry x="465" y="480" width="10" height="20" as="geometry" />
        </mxCell>
        <mxCell id="fiyiwOHagAMcbI06cj-v-47" value="" style="triangle;whiteSpace=wrap;html=1;rotation=0;fillColor=#000000;" parent="1" vertex="1">
          <mxGeometry x="726" y="350" width="10" height="20" as="geometry" />
        </mxCell>
        <mxCell id="fiyiwOHagAMcbI06cj-v-48" value="1..*" style="text;html=1;align=center;verticalAlign=middle;resizable=0;points=[];autosize=1;strokeColor=none;fillColor=none;" parent="1" vertex="1">
          <mxGeometry x="316.5" y="90" width="40" height="30" as="geometry" />
        </mxCell>
        <mxCell id="fiyiwOHagAMcbI06cj-v-49" value="1..1" style="text;html=1;align=center;verticalAlign=middle;resizable=0;points=[];autosize=1;strokeColor=none;fillColor=none;" parent="1" vertex="1">
          <mxGeometry x="916.5" y="300" width="40" height="30" as="geometry" />
        </mxCell>
        <mxCell id="fiyiwOHagAMcbI06cj-v-50" value="&lt;div&gt;NHSnumber {PK}&lt;/div&gt;&lt;div&gt;CHRID{FK}&lt;/div&gt;&lt;div&gt;gpID{FK}&lt;br&gt;&lt;/div&gt;&lt;div&gt;pForename&lt;/div&gt;&lt;div&gt;pSurname&lt;/div&gt;&lt;div&gt;pDOB&lt;br&gt;&lt;/div&gt;&lt;div&gt;pGenderCode&lt;br style=&quot;border-color: var(--border-color);&quot;&gt;&lt;/div&gt;&lt;div&gt;pPhone&lt;br&gt;pEmail&lt;br&gt;pAddress&lt;/div&gt;&lt;div&gt;pPostcode&lt;/div&gt;&lt;div&gt;pDateRegistered&lt;br&gt;&lt;/div&gt;" style="text;html=1;strokeColor=none;fillColor=none;align=left;verticalAlign=middle;whiteSpace=wrap;rounded=0;" parent="1" vertex="1">
          <mxGeometry x="150" y="135" width="100" height="70" as="geometry" />
        </mxCell>
        <mxCell id="fiyiwOHagAMcbI06cj-v-51" value="&lt;div&gt;CHRID {PK}&lt;/div&gt;&lt;div&gt;gpID{FK}&lt;br&gt;&lt;/div&gt;&lt;div&gt;CHRDateCreated&lt;/div&gt;CHRNotes&lt;br&gt;CHRDateAmended" style="text;html=1;align=left;verticalAlign=middle;resizable=0;points=[];autosize=1;strokeColor=none;fillColor=none;" parent="1" vertex="1">
          <mxGeometry x="800" y="349" width="130" height="90" as="geometry" />
        </mxCell>
        <mxCell id="fiyiwOHagAMcbI06cj-v-54" value="&lt;div align=&quot;left&quot;&gt;appID{PK}&lt;/div&gt;&lt;div align=&quot;left&quot;&gt;NHSnumber{FK}&lt;br&gt;&lt;/div&gt;&lt;div align=&quot;left&quot;&gt;empID{FK}&lt;br&gt;&lt;/div&gt;&lt;div align=&quot;left&quot;&gt;appDateCreated&lt;br&gt;appDateAssigned&lt;/div&gt;&lt;div align=&quot;left&quot;&gt;appNotes&lt;/div&gt;" style="text;html=1;align=left;verticalAlign=middle;resizable=0;points=[];autosize=1;strokeColor=none;fillColor=none;" parent="1" vertex="1">
          <mxGeometry x="145" y="465" width="120" height="100" as="geometry" />
        </mxCell>
        <mxCell id="fiyiwOHagAMcbI06cj-v-55" value="&lt;div&gt;gpID{PK}&lt;/div&gt;&lt;div&gt;gpName&lt;/div&gt;&lt;div&gt;gpAddress&lt;/div&gt;&lt;div&gt;gpPostcode&lt;/div&gt;&lt;div&gt;gpPhone&lt;/div&gt;&lt;div&gt;gpEmail&lt;/div&gt;&lt;div&gt;gpNo.PatientsRegistered&lt;br&gt;&lt;/div&gt;" style="text;html=1;align=left;verticalAlign=middle;resizable=0;points=[];autosize=1;strokeColor=none;fillColor=none;" parent="1" vertex="1">
          <mxGeometry x="390" y="350" width="160" height="110" as="geometry" />
        </mxCell>
        <mxCell id="fiyiwOHagAMcbI06cj-v-56" value="1..1" style="text;html=1;align=center;verticalAlign=middle;resizable=0;points=[];autosize=1;strokeColor=none;fillColor=none;" parent="1" vertex="1">
          <mxGeometry x="203" y="260" width="40" height="30" as="geometry" />
        </mxCell>
        <mxCell id="fiyiwOHagAMcbI06cj-v-57" value="has" style="text;html=1;align=center;verticalAlign=middle;resizable=0;points=[];autosize=1;strokeColor=none;fillColor=none;rotation=90;" parent="1" vertex="1">
          <mxGeometry x="230" y="315" width="40" height="30" as="geometry" />
        </mxCell>
        <mxCell id="fiyiwOHagAMcbI06cj-v-58" value="&lt;br&gt;" style="text;html=1;align=center;verticalAlign=middle;resizable=0;points=[];autosize=1;strokeColor=none;fillColor=none;" parent="1" vertex="1">
          <mxGeometry x="163" y="250" width="20" height="30" as="geometry" />
        </mxCell>
        <mxCell id="fiyiwOHagAMcbI06cj-v-59" value="" style="triangle;whiteSpace=wrap;html=1;rotation=90;fillColor=#000000;" parent="1" vertex="1">
          <mxGeometry x="245" y="345" width="10" height="20" as="geometry" />
        </mxCell>
        <mxCell id="fiyiwOHagAMcbI06cj-v-60" value="registers" style="text;html=1;align=center;verticalAlign=middle;resizable=0;points=[];autosize=1;strokeColor=none;fillColor=none;" parent="1" vertex="1">
          <mxGeometry x="456" y="140" width="70" height="30" as="geometry" />
        </mxCell>
        <mxCell id="fiyiwOHagAMcbI06cj-v-61" value="" style="triangle;whiteSpace=wrap;html=1;rotation=0;fillColor=#000000;" parent="1" vertex="1">
          <mxGeometry x="516" y="145" width="10" height="20" as="geometry" />
        </mxCell>
        <mxCell id="fiyiwOHagAMcbI06cj-v-62" value="1..*" style="text;html=1;align=center;verticalAlign=middle;resizable=0;points=[];autosize=1;strokeColor=none;fillColor=none;" parent="1" vertex="1">
          <mxGeometry x="316.5" y="165" width="40" height="30" as="geometry" />
        </mxCell>
        <mxCell id="fiyiwOHagAMcbI06cj-v-63" value="1..1" style="text;html=1;align=center;verticalAlign=middle;resizable=0;points=[];autosize=1;strokeColor=none;fillColor=none;" parent="1" vertex="1">
          <mxGeometry x="523" y="300" width="40" height="30" as="geometry" />
        </mxCell>
        <mxCell id="fiyiwOHagAMcbI06cj-v-64" value="" style="endArrow=none;html=1;rounded=0;entryX=1;entryY=0;entryDx=0;entryDy=0;" parent="1" target="fiyiwOHagAMcbI06cj-v-3" edge="1">
          <mxGeometry width="50" height="50" relative="1" as="geometry">
            <mxPoint x="326" y="165" as="sourcePoint" />
            <mxPoint x="376" y="115" as="targetPoint" />
            <Array as="points">
              <mxPoint x="557" y="165" />
            </Array>
          </mxGeometry>
        </mxCell>
        <mxCell id="fiyiwOHagAMcbI06cj-v-65" value="" style="endArrow=none;html=1;rounded=0;entryX=1;entryY=0;entryDx=0;entryDy=0;" parent="1" target="fiyiwOHagAMcbI06cj-v-6" edge="1">
          <mxGeometry width="50" height="50" relative="1" as="geometry">
            <mxPoint x="326" y="90" as="sourcePoint" />
            <mxPoint x="376" y="50" as="targetPoint" />
            <Array as="points">
              <mxPoint x="957" y="90" />
            </Array>
          </mxGeometry>
        </mxCell>
        <mxCell id="fiyiwOHagAMcbI06cj-v-66" value="has" style="text;html=1;align=center;verticalAlign=middle;resizable=0;points=[];autosize=1;strokeColor=none;fillColor=none;" parent="1" vertex="1">
          <mxGeometry x="660" y="65" width="40" height="30" as="geometry" />
        </mxCell>
        <mxCell id="fiyiwOHagAMcbI06cj-v-67" value="" style="triangle;whiteSpace=wrap;html=1;rotation=0;fillColor=#000000;" parent="1" vertex="1">
          <mxGeometry x="700" y="70" width="10" height="20" as="geometry" />
        </mxCell>
        <mxCell id="fiyiwOHagAMcbI06cj-v-68" value="" style="rounded=0;whiteSpace=wrap;html=1;" parent="1" vertex="1">
          <mxGeometry x="-230" y="110" width="226" height="306" as="geometry" />
        </mxCell>
        <mxCell id="fiyiwOHagAMcbI06cj-v-69" value="" style="endArrow=none;html=1;rounded=0;" parent="1" edge="1">
          <mxGeometry width="50" height="50" relative="1" as="geometry">
            <mxPoint x="-230" y="135" as="sourcePoint" />
            <mxPoint y="135" as="targetPoint" />
          </mxGeometry>
        </mxCell>
        <mxCell id="fiyiwOHagAMcbI06cj-v-70" value="Vaccine" style="text;html=1;strokeColor=none;fillColor=none;align=center;verticalAlign=middle;whiteSpace=wrap;rounded=0;" parent="1" vertex="1">
          <mxGeometry x="-190.5" y="105" width="147" height="30" as="geometry" />
        </mxCell>
        <mxCell id="fiyiwOHagAMcbI06cj-v-71" value="&lt;div&gt;&lt;span style=&quot;background-color: initial;&quot;&gt;&lt;br&gt;&lt;/span&gt;&lt;/div&gt;&lt;div align=&quot;left&quot;&gt;&lt;span style=&quot;background-color: initial;&quot;&gt;&lt;br&gt;&lt;/span&gt;&lt;/div&gt;&lt;div align=&quot;left&quot;&gt;&lt;span style=&quot;background-color: initial;&quot;&gt;DoseNo {PK}&amp;nbsp;&amp;nbsp;&amp;nbsp;&amp;nbsp; &lt;br&gt;&lt;/span&gt;&lt;/div&gt;&lt;div align=&quot;left&quot;&gt;&lt;span style=&quot;background-color: initial;&quot;&gt;NHSnumber{FK}&lt;/span&gt;&lt;/div&gt;&lt;div align=&quot;left&quot;&gt;&lt;span style=&quot;background-color: initial;&quot;&gt;appID{FK}&lt;br&gt;&lt;/span&gt;&lt;/div&gt;&lt;div align=&quot;left&quot;&gt;&lt;span style=&quot;background-color: initial;&quot;&gt;VaccinationDate&lt;/span&gt;&lt;br&gt;&lt;/div&gt;&lt;div align=&quot;left&quot;&gt;&lt;span style=&quot;background-color: initial;&quot;&gt;VaccineManufacturer&lt;/span&gt;&lt;/div&gt;&lt;div align=&quot;left&quot;&gt;&lt;span style=&quot;background-color: initial;&quot;&gt;DiseaseTargeted&lt;/span&gt;&lt;/div&gt;&lt;div align=&quot;left&quot;&gt;&lt;span style=&quot;background-color: initial;&quot;&gt;VaccineType&lt;/span&gt;&lt;/div&gt;&lt;div align=&quot;left&quot;&gt;&lt;span style=&quot;background-color: initial;&quot;&gt;Product&amp;nbsp;&lt;/span&gt;&lt;/div&gt;&lt;div align=&quot;left&quot;&gt;&lt;span style=&quot;background-color: initial;&quot;&gt;VaccineBatchNumber&lt;/span&gt;&lt;/div&gt;&lt;div align=&quot;left&quot;&gt;&lt;span style=&quot;background-color: initial;&quot;&gt;CountryOfVaccination&lt;/span&gt;&lt;/div&gt;&lt;div align=&quot;left&quot;&gt;&lt;span style=&quot;background-color: initial;&quot;&gt;Authority&lt;/span&gt;&lt;/div&gt;&lt;div align=&quot;left&quot;&gt;&lt;span style=&quot;background-color: initial;&quot;&gt;Site&lt;/span&gt;&lt;/div&gt;&lt;div align=&quot;left&quot;&gt;&lt;span style=&quot;background-color: initial;&quot;&gt;TotalSeriesOfDoses&lt;/span&gt;&lt;/div&gt;&lt;div align=&quot;left&quot;&gt;&lt;span style=&quot;background-color: initial;&quot;&gt;DisplayName&lt;/span&gt;&lt;/div&gt;&lt;div align=&quot;left&quot;&gt;&lt;span style=&quot;background-color: initial;&quot;&gt;SnomedCode&lt;/span&gt;&lt;/div&gt;&lt;div align=&quot;left&quot;&gt;&lt;span style=&quot;background-color: initial;&quot;&gt;DateEntered&lt;/span&gt;&lt;/div&gt;&lt;div align=&quot;left&quot;&gt;&lt;span style=&quot;background-color: initial;&quot;&gt;ProcedureCode&lt;/span&gt;&lt;/div&gt;&lt;div align=&quot;left&quot;&gt;&lt;span style=&quot;background-color: initial;&quot;&gt;Booster&lt;/span&gt;&lt;/div&gt;" style="text;html=1;align=center;verticalAlign=middle;resizable=0;points=[];autosize=1;strokeColor=none;fillColor=none;" parent="1" vertex="1">
          <mxGeometry x="-220" y="110" width="140" height="300" as="geometry" />
        </mxCell>
        <mxCell id="fiyiwOHagAMcbI06cj-v-72" value="" style="endArrow=none;html=1;rounded=0;exitX=0.05;exitY=0.133;exitDx=0;exitDy=0;entryX=0;entryY=0.25;entryDx=0;entryDy=0;exitPerimeter=0;" parent="1" source="fiyiwOHagAMcbI06cj-v-73" target="fiyiwOHagAMcbI06cj-v-16" edge="1">
          <mxGeometry width="50" height="50" relative="1" as="geometry">
            <mxPoint x="20" y="250" as="sourcePoint" />
            <mxPoint x="70" y="200" as="targetPoint" />
            <Array as="points">
              <mxPoint x="-97" y="460" />
            </Array>
          </mxGeometry>
        </mxCell>
        <mxCell id="fiyiwOHagAMcbI06cj-v-73" value="1..*" style="text;html=1;align=center;verticalAlign=middle;resizable=0;points=[];autosize=1;strokeColor=none;fillColor=none;" parent="1" vertex="1">
          <mxGeometry x="-100" y="415" width="40" height="30" as="geometry" />
        </mxCell>
        <mxCell id="fiyiwOHagAMcbI06cj-v-74" value="1..1" style="text;html=1;align=center;verticalAlign=middle;resizable=0;points=[];autosize=1;strokeColor=none;fillColor=none;" parent="1" vertex="1">
          <mxGeometry x="100" y="440" width="40" height="30" as="geometry" />
        </mxCell>
        <mxCell id="fiyiwOHagAMcbI06cj-v-75" value="suggests" style="text;html=1;align=center;verticalAlign=middle;resizable=0;points=[];autosize=1;strokeColor=none;fillColor=none;" parent="1" vertex="1">
          <mxGeometry x="10" y="435" width="80" height="30" as="geometry" />
        </mxCell>
        <mxCell id="fiyiwOHagAMcbI06cj-v-76" value="" style="triangle;whiteSpace=wrap;html=1;rotation=-180;fillColor=#000000;" parent="1" vertex="1">
          <mxGeometry y="440" width="10" height="20" as="geometry" />
        </mxCell>
        <mxCell id="fiyiwOHagAMcbI06cj-v-77" value="" style="endArrow=none;html=1;rounded=0;entryX=0.825;entryY=0.067;entryDx=0;entryDy=0;entryPerimeter=0;" parent="1" target="fiyiwOHagAMcbI06cj-v-81" edge="1">
          <mxGeometry width="50" height="50" relative="1" as="geometry">
            <mxPoint x="-5" y="205" as="sourcePoint" />
            <mxPoint x="140" y="210" as="targetPoint" />
          </mxGeometry>
        </mxCell>
        <mxCell id="fiyiwOHagAMcbI06cj-v-78" value="recieves" style="text;html=1;align=center;verticalAlign=middle;resizable=0;points=[];autosize=1;strokeColor=none;fillColor=none;" parent="1" vertex="1">
          <mxGeometry x="40" y="175" width="70" height="30" as="geometry" />
        </mxCell>
        <mxCell id="fiyiwOHagAMcbI06cj-v-79" value="" style="triangle;whiteSpace=wrap;html=1;rotation=-180;fillColor=#000000;" parent="1" vertex="1">
          <mxGeometry x="40" y="180" width="10" height="20" as="geometry" />
        </mxCell>
        <mxCell id="fiyiwOHagAMcbI06cj-v-80" value="0..*" style="text;html=1;align=center;verticalAlign=middle;resizable=0;points=[];autosize=1;strokeColor=none;fillColor=none;" parent="1" vertex="1">
          <mxGeometry x="-10" y="205" width="40" height="30" as="geometry" />
        </mxCell>
        <mxCell id="fiyiwOHagAMcbI06cj-v-81" value="1..*" style="text;html=1;align=center;verticalAlign=middle;resizable=0;points=[];autosize=1;strokeColor=none;fillColor=none;" parent="1" vertex="1">
          <mxGeometry x="105" y="205" width="40" height="30" as="geometry" />
        </mxCell>
        <mxCell id="fiyiwOHagAMcbI06cj-v-87" value="" style="endArrow=none;html=1;rounded=0;entryX=0.5;entryY=1;entryDx=0;entryDy=0;" parent="1" target="fiyiwOHagAMcbI06cj-v-1" edge="1">
          <mxGeometry width="50" height="50" relative="1" as="geometry">
            <mxPoint x="530" y="640" as="sourcePoint" />
            <mxPoint x="560" y="660" as="targetPoint" />
            <Array as="points">
              <mxPoint x="530" y="560" />
              <mxPoint x="483" y="560" />
            </Array>
          </mxGeometry>
        </mxCell>
        <mxCell id="fiyiwOHagAMcbI06cj-v-88" value="" style="whiteSpace=wrap;html=1;aspect=fixed;verticalAlign=bottom;" parent="1" vertex="1">
          <mxGeometry x="438" y="585" width="210" height="210" as="geometry" />
        </mxCell>
        <mxCell id="fiyiwOHagAMcbI06cj-v-89" value="Employee" style="text;html=1;align=center;verticalAlign=middle;resizable=0;points=[];autosize=1;strokeColor=none;fillColor=none;" parent="1" vertex="1">
          <mxGeometry x="495" y="585" width="80" height="30" as="geometry" />
        </mxCell>
        <mxCell id="fiyiwOHagAMcbI06cj-v-90" value="" style="endArrow=none;html=1;rounded=0;exitX=-0.006;exitY=0.181;exitDx=0;exitDy=0;exitPerimeter=0;entryX=1;entryY=0.181;entryDx=0;entryDy=0;entryPerimeter=0;" parent="1" source="fiyiwOHagAMcbI06cj-v-88" target="fiyiwOHagAMcbI06cj-v-88" edge="1">
          <mxGeometry width="50" height="50" relative="1" as="geometry">
            <mxPoint x="510" y="710" as="sourcePoint" />
            <mxPoint x="560" y="660" as="targetPoint" />
          </mxGeometry>
        </mxCell>
        <mxCell id="fiyiwOHagAMcbI06cj-v-52" value="&lt;div align=&quot;left&quot;&gt;empID {PK}&lt;/div&gt;&lt;div align=&quot;left&quot;&gt;gpID{FK}&lt;br&gt;&lt;/div&gt;&lt;div align=&quot;left&quot;&gt;empName&lt;/div&gt;&lt;div align=&quot;left&quot;&gt;empLName&lt;/div&gt;&lt;div align=&quot;left&quot;&gt;empDOB&lt;/div&gt;&lt;div align=&quot;left&quot;&gt;empPhone&lt;/div&gt;&lt;div align=&quot;left&quot;&gt;empEmail&lt;/div&gt;&lt;div align=&quot;left&quot;&gt;empAddress&lt;/div&gt;&lt;div align=&quot;left&quot;&gt;empPostcode&lt;/div&gt;&lt;div align=&quot;left&quot;&gt;empPosition&lt;br&gt;empSalary&lt;br&gt;&lt;/div&gt;" style="text;html=1;align=left;verticalAlign=top;resizable=0;points=[];autosize=1;strokeColor=none;fillColor=none;" parent="1" vertex="1">
          <mxGeometry x="456" y="625" width="100" height="170" as="geometry" />
        </mxCell>
        <mxCell id="fiyiwOHagAMcbI06cj-v-91" value="&lt;div align=&quot;left&quot;&gt;dSpecialization&lt;/div&gt;" style="text;html=1;align=left;verticalAlign=middle;resizable=0;points=[];autosize=1;strokeColor=none;fillColor=none;" parent="1" vertex="1">
          <mxGeometry x="295" y="880" width="110" height="30" as="geometry" />
        </mxCell>
        <mxCell id="fiyiwOHagAMcbI06cj-v-93" value="1..*" style="text;html=1;align=center;verticalAlign=middle;resizable=0;points=[];autosize=1;strokeColor=none;fillColor=none;" parent="1" vertex="1">
          <mxGeometry x="523" y="555" width="40" height="30" as="geometry" />
        </mxCell>
        <mxCell id="fiyiwOHagAMcbI06cj-v-98" value="" style="endArrow=none;html=1;rounded=0;exitX=0.5;exitY=0;exitDx=0;exitDy=0;entryX=0.5;entryY=0;entryDx=0;entryDy=0;" parent="1" source="fiyiwOHagAMcbI06cj-v-10" target="fiyiwOHagAMcbI06cj-v-15" edge="1">
          <mxGeometry width="50" height="50" relative="1" as="geometry">
            <mxPoint x="590" y="650" as="sourcePoint" />
            <mxPoint x="640" y="600" as="targetPoint" />
            <Array as="points">
              <mxPoint x="386" y="820" />
              <mxPoint x="680" y="820" />
            </Array>
          </mxGeometry>
        </mxCell>
        <mxCell id="fiyiwOHagAMcbI06cj-v-99" value="" style="triangle;whiteSpace=wrap;html=1;rotation=-90;" parent="1" vertex="1">
          <mxGeometry x="535" y="795" width="10" height="20" as="geometry" />
        </mxCell>
        <mxCell id="fiyiwOHagAMcbI06cj-v-100" value="" style="endArrow=none;html=1;rounded=0;" parent="1" edge="1">
          <mxGeometry width="50" height="50" relative="1" as="geometry">
            <mxPoint x="540" y="820" as="sourcePoint" />
            <mxPoint x="540" y="810" as="targetPoint" />
          </mxGeometry>
        </mxCell>
      </root>
    </mxGraphModel>
  </diagram>
</mxfile>
